<?xml version="1.0" encoding="UTF-8"?>
<svg width="512" height="512" version="1.1" viewBox="0 0 512 512" xml:space="preserve" xmlns="http://www.w3.org/2000/svg">
<g transform="matrix(1.07 0 0 1.07 6.44 47.1)"><g stroke-width="4"><path d="m156 291s10.7 28.7 4.52 38.8c-6.2 10.1-31 8.16-38.6 13-5.44 3.44-5.36 13-1.96 16.9 3.36 3.96 52.4 0.56 62-18s-3.44-54.1-3.44-54.1z" fill="#f97d23"/><path d="m234 287-20.8 4.52s9 37.7 1.68 50.1-33.6 25.6-38.3 36c-4.24 9.28 6.2 16.9 22.5 6.76s34.8-25.2 38.3-32.7c8.48-18-3.36-64.8-3.36-64.8z" fill="#f97d23"/><path d="m91.4 2.74c-44.3 9.96-78.8 47.3-65.9 104 7.68 33.7 12.4 45.6 15.2 60.8 5.92 32 4.32 46 17.8 75.3 14.4 31.2 67.2 71.2 133 61.6s92.4-18.6 92.4-18.6l23.6-20.8 22.5-5.64 3.36-16.3s16.8-0.76 20.3-6.2c5.44-8.64 2.24-15.8-7.32-19.2-9.56-3.36-15.2-6.2-15.2-6.2s92.9-61.4 104-68.1 28.7-18.3 29.6-22.5c2.12-10.7-26.8-34.4-64.5-45.6-37.7-11.3-70.1-14.4-75.4-10.1-7.08 5.56-38.3 64.2-59.1 61.4-27-3.68-45.6-29-50.7-43.4-5.76-16.3-40.4-99.3-124-80.5z" fill="#fcc21b"/><path d="m34.6 90.6c-6.76-1.12-24 17.3-27.4 21.8-3.36 4.48-8.68 10.9-6.76 15.8 3 7.52 18.4 7.92 27.4 8.64 9.4 0.76 27.4 2.24 30.4-3.36 3-5.64-3.36-19.9-8.64-28.5-4.88-8.04-7.96-13.1-15-14.3z" fill="#f97d23"/></g><ellipse transform="rotate(-6.87)" cx="94.6" cy="102" rx="16.1" ry="17.4" fill="#2a2d2f" stroke-width="4"/><path d="m114 0.0119c-6.99 0.109-14.4 0.976-22.2 2.73-13.4 3-25.8 8.54-36.3 16.3-7.37 4.59-23.1 50.1-15.8 47.1 72.6-29.6 131-14.7 175 14.3-6.96-18.4-35.9-81.5-101-80.5zm220 63.4c-4.38 0.131-7.4 0.729-8.73 1.79-5.65 4.44-26.7 42.6-45.5 56.4 37.1 8.06 91.1 28.9 103 55.9 23.4-15.4 47.2-31 52.6-34.1 11.2-6.72 28.7-18.3 29.6-22.5 2.12-10.7-26.8-34.4-64.5-45.6-28.3-8.46-53.6-12.3-66.7-11.9zm-144 100c-15.2 1.51-40.7 3.95-43.9 12.9-3.64 10.3 20.8 35.1 20.8 35.1l26.8 51.7 69.5 28.2c14.6-3.4 21.2-5.63 21.2-5.63l23.6-20.8 22.5-5.64 3.36-16.3s16.8-0.763 20.3-6.2c5.44-8.64 2.24-15.8-7.32-19.2-9.56-3.36-15.2-6.2-15.2-6.2s-6e-3 6e-3 -9.4e-4 2e-3c-46.4-5.77-66.6-13.7-106-44.7-8.54-6.69-23.7-4.3-35.5-3.13z" fill="#896500" opacity=".579" stroke-width="4"/><path d="m159 210c-7.8 2.84 2.44 30.4 13 42.8 11.1 13 37.9 42.3 78.8 46.2 27.8 2.64 40.2-5.24 46.7-12.4 4.88-5.32 10.1-11.5 13.7-14.3 5.24-4.12 10.5-0.56 19.5-7.12 6.48-4.72 7.88-12.6 11.3-15.4 3.36-2.8 9.08-2.16 12-4.88 5.24-4.88 4.52-19.2 0.76-19.9-3.76-0.72-4.12 10.1-7.88 11.6s-8.76 0.56-15.8 4.52c-6 3.36-4.12 10.1-8.24 13.1s-11.6-1.12-21.8 4.52c-5.48 3.04-10.1 17.6-25.9 21-19.6 4.2-49-10.1-63.1-20.3-32.7-23.7-39.8-54.4-53.2-49.6z" fill="#6a3e00" stroke-width="4"/></g></svg>
